<svg xmlns="http://www.w3.org/2000/svg" width="52" height="126.031" viewBox="0 0 52 126.031">
  <defs>
    <style>
      .cls-1 {
        fill: #0984e3;
        fill-rule: evenodd;
      }
    </style>
  </defs>
  <path id="シェイプ_10" data-name="シェイプ 10" class="cls-1" d="M206,206.462a7.723,7.723,0,0,0-3.653-5.147,11.471,11.471,0,0,0-18.18-8.713,8.618,8.618,0,0,0-10.792,10.011,8.5,8.5,0,0,0-3.288,3.108c-3.781,6.076.794,13.239,7.554,13.628,1.65,0.095,1.644-2.465,0-2.56-6.188-.356-8.671-8.491-3.347-11.707a6.852,6.852,0,0,1,.637-0.369c0.171-.081.339-0.146,0.507-0.21a5.96,5.96,0,0,1,1.3-.339c2.411-.333,4.454,1.019,6.244,2.681,0.239,0.223.476,0.45,0.707,0.68,0.121,0.121.244,0.249,0.367,0.376q0.468,0.484.95,1.012c2.633,2.879,5.574,6.53,9.008,7.89A8.991,8.991,0,0,0,206,206.462Zm-20.5-.756c-0.3-.3-0.6-0.6-0.9-0.89a10.482,10.482,0,0,0-8.746-3.019A6.068,6.068,0,1,1,185.505,205.706Zm10.138,8.955c-2.32-.638-4.082-2.906-5.722-4.543-0.859-.857-1.713-1.72-2.569-2.58a8.59,8.59,0,0,0-.478-13.638,8.894,8.894,0,0,1,12.783,6.344,26.59,26.59,0,0,0-6.4-.593,1.281,1.281,0,0,0,0,2.56c2.965,0,6.256-.444,8.562,1.856C206.349,208.583,201.768,216.343,195.643,214.661Zm-7.207,28.959a4.062,4.062,0,0,0-2.417-3.418c-0.3.21-.6,0.424-0.9,0.632a13.294,13.294,0,0,1-8.746,2.147,3.106,3.106,0,0,0-.091.639c0,2.377,2.726,4.31,6.076,4.31S188.436,246,188.436,243.62Zm14.2-16.317a25.823,25.823,0,0,0,9.558-30.851l-9.146-48.743c-1.442-9.78-7.841-14.716-16.3-14.716s-14.86,4.936-16.3,14.727l-6.707,48.822,0.028,0a25.813,25.813,0,0,0,9.591,30.756c-6.009,3.132-9.963,8.145-10.107,13.842-0.245,9.7,10.638,17.7,24.307,17.872s24.95-7.546,25.2-17.242C212.9,235.85,208.893,230.563,202.638,227.3Zm-2.146-79.981a16.274,16.274,0,0,0-11.25-7.066l-0.2-4.663C194.851,136.372,199.181,140.215,200.492,147.322Zm-15.984-11.735-0.2,4.669A15.8,15.8,0,0,0,172.9,147.9C174.062,140.406,178.5,136.372,184.508,135.587Zm-12.547,19.031c2.028-7.05,6.394-11.506,12.265-12.5L183.543,158c0,1.438,1.447,2.6,3.232,2.6s3.232-1.166,3.232-2.6l-0.684-15.874c5.848,0.978,10.323,5.343,12.455,12.077l4.391,23.4a26.7,26.7,0,0,0-37.62,1.662Zm-4.036,29.148a1.149,1.149,0,0,0,.243-0.214,24.3,24.3,0,0,1,38.814-1.621l1.5,8.021a25.969,25.969,0,0,0-41.519.723Zm-3.322,22.11A23.4,23.4,0,1,1,188,229.218,23.369,23.369,0,0,1,164.6,205.876Zm41.913,33.788a6.036,6.036,0,0,1-3.653,3.66c-0.623,6.608-10.649,9.838-18.18,6.194a11.92,11.92,0,0,1-2.323.232c-4.765,0-8.642-2.75-8.642-6.13a4.449,4.449,0,0,1,.173-1.219,8.017,8.017,0,0,1-3.288-2.21c-3.781-4.319.794-9.412,7.554-9.689,1.649-.067,1.644,1.753,0,1.82-6.188.254-8.671,6.037-3.347,8.324,0.208,0.089.4,0.184,0.637,0.262,0.171,0.058.339,0.1,0.507,0.149a7.974,7.974,0,0,0,1.3.241,9.519,9.519,0,0,0,6.244-1.906c0.239-.158.476-0.32,0.707-0.483,0.121-.086.244-0.178,0.367-0.268,0.312-.229.629-0.47,0.95-0.719,2.633-2.047,5.574-4.642,9.008-5.609C201.122,230.458,208.187,234.756,206.516,239.664Zm-10.359-5.828c-2.32.453-4.082,2.066-5.722,3.229-0.859.609-1.713,1.223-2.569,1.834A5.663,5.663,0,0,1,191,243.62c0,2.049-1.43,3.862-3.614,4.976,5.323,1.915,11.678-.328,12.783-4.511a37.068,37.068,0,0,1-6.395.422c-1.651,0-1.654-1.82,0-1.82,2.965,0,6.256.316,8.562-1.32C206.863,238.157,202.282,232.639,196.157,233.836Z" transform="translate(-162 -133)"/>
</svg>
